<svg id="visual" viewBox="0 0 675 900"  xmlns="http://www.w3.org/2000/svg" xmlns:xlink="http://www.w3.org/1999/xlink" version="1.1"><path d="M0 632L16 640C32 648 64 664 96.2 652.3C128.3 640.7 160.7 601.3 192.8 595.8C225 590.3 257 618.7 289.2 648.2C321.3 677.7 353.7 708.3 385.8 713.3C418 718.3 450 697.7 482.2 670.2C514.3 642.7 546.7 608.3 578.8 597.3C611 586.3 643 598.7 659 604.8L675 611L675 901L659 901C643 901 611 901 578.8 901C546.7 901 514.3 901 482.2 901C450 901 418 901 385.8 901C353.7 901 321.3 901 289.2 901C257 901 225 901 192.8 901C160.7 901 128.3 901 96.2 901C64 901 32 901 16 901L0 901Z"  stroke-linecap="round" stroke-linejoin="miter"></path></svg>