<svg id="visual" viewBox="0 0 900 600"  xmlns="http://www.w3.org/2000/svg" xmlns:xlink="http://www.w3.org/1999/xlink" version="1.1"><path d="M0 328L10.7 311.3C21.3 294.7 42.7 261.3 64.2 255.7C85.7 250 107.3 272 128.8 300.3C150.3 328.7 171.7 363.3 193 344.8C214.3 326.3 235.7 254.7 257 248.7C278.3 242.7 299.7 302.3 321.2 314.7C342.7 327 364.3 292 385.8 293.2C407.3 294.3 428.7 331.7 450 333C471.3 334.3 492.7 299.7 514.2 290.2C535.7 280.7 557.3 296.3 578.8 294.3C600.3 292.3 621.7 272.7 643 255.5C664.3 238.3 685.7 223.7 707 237.5C728.3 251.3 749.7 293.7 771.2 303.8C792.7 314 814.3 292 835.8 299.8C857.3 307.7 878.7 345.3 889.3 364.2L900 383L900 0L889.3 0C878.7 0 857.3 0 835.8 0C814.3 0 792.7 0 771.2 0C749.7 0 728.3 0 707 0C685.7 0 664.3 0 643 0C621.7 0 600.3 0 578.8 0C557.3 0 535.7 0 514.2 0C492.7 0 471.3 0 450 0C428.7 0 407.3 0 385.8 0C364.3 0 342.7 0 321.2 0C299.7 0 278.3 0 257 0C235.7 0 214.3 0 193 0C171.7 0 150.3 0 128.8 0C107.3 0 85.7 0 64.2 0C42.7 0 21.3 0 10.7 0L0 0Z"  stroke-linecap="round" stroke-linejoin="miter"></path></svg>