<?xml version="1.0" standalone="no"?>

<svg version="1.0" xmlns="http://www.w3.org/2000/svg"
 width="478.000000pt" height="468.000000pt" viewBox="0 0 478.000000 468.000000"
 preserveAspectRatio="xMidYMid meet">

<g transform="translate(0.000000,468.000000) scale(0.100000,-0.100000)">
<path d="M785 3984 c-343 -240 -345 -241 -345 -260 0 -9 18 -41 40 -71 22 -31
40 -60 40 -64 0 -4 -29 -28 -65 -54 -36 -25 -65 -53 -65 -61 0 -23 142 -224
157 -224 8 0 25 8 39 17 16 10 28 13 32 6 4 -5 22 -33 40 -61 l33 -50 -35 -47
c-49 -63 -48 -112 4 -301 22 -80 40 -149 40 -153 0 -5 -60 -54 -134 -110 -149
-112 -181 -147 -228 -248 -28 -59 -33 -81 -36 -168 -4 -97 -2 -105 48 -265
112 -361 169 -548 190 -620 54 -184 145 -290 302 -353 43 -17 83 -22 207 -26
l155 -6 41 -142 c46 -157 73 -204 132 -225 31 -10 223 -13 993 -13 919 0 956
1 993 19 56 28 84 78 126 227 l37 134 154 6 c127 4 165 9 211 27 109 43 200
126 254 231 9 19 78 230 152 470 l134 436 -4 100 c-7 177 -61 263 -262 416
-74 56 -135 105 -135 110 0 5 18 73 40 151 22 80 40 165 40 193 0 51 -24 106
-57 132 -14 11 -11 20 27 75 24 35 45 65 47 67 1 2 12 -4 22 -13 11 -10 28
-16 38 -14 17 3 163 200 163 219 0 8 -71 68 -118 99 l-23 15 46 64 c25 36 45
70 45 77 0 6 -42 40 -92 76 -51 35 -194 135 -317 221 -142 99 -228 154 -237
149 -7 -4 -31 -33 -54 -65 -23 -31 -45 -57 -49 -57 -4 0 -43 25 -85 55 -42 30
-84 55 -94 55 -19 0 -162 -198 -162 -224 0 -8 16 -24 35 -36 l36 -22 -18 -27
c-58 -87 -69 -101 -76 -101 -4 0 -26 12 -49 28 l-42 27 -731 0 -731 0 -44 -29
-43 -28 -18 23 c-11 13 -31 41 -46 62 l-27 39 39 33 40 33 -64 93 c-79 116
-90 129 -109 129 -13 0 -50 -24 -148 -97 l-31 -23 -51 70 c-29 38 -55 70 -59
70 -5 0 -134 -88 -288 -196z m335 29 c0 -6 -121 -97 -270 -201 l-269 -190 -31
41 c-17 23 -29 46 -27 51 2 6 124 95 272 198 l268 187 28 -37 c16 -20 29 -42
29 -49z m2655 17 c313 -219 431 -303 438 -310 5 -4 -6 -28 -24 -53 l-32 -45
-88 61 c-48 34 -168 118 -265 187 -98 69 -182 128 -187 131 -14 10 52 101 66
92 7 -4 48 -32 92 -63z m-2368 -17 l43 -61 -227 -160 c-212 -148 -504 -353
-615 -432 -26 -19 -49 -32 -51 -29 -32 38 -87 133 -81 139 5 4 117 83 249 176
132 92 325 228 429 301 104 74 194 132 199 130 6 -2 30 -30 54 -64z m2302
-155 c174 -122 363 -255 421 -295 58 -40 113 -79 123 -87 17 -13 15 -18 -28
-80 -28 -40 -51 -64 -58 -60 -7 4 -25 17 -42 29 -16 12 -104 73 -195 137 -205
142 -517 362 -588 412 -29 21 -52 41 -50 45 10 23 85 121 92 121 5 0 151 -100
325 -222z m-2219 -147 c-1 -4 -135 -99 -298 -213 -163 -114 -329 -230 -369
-258 l-71 -50 -41 57 c-23 32 -40 63 -39 70 2 6 167 126 367 267 l364 255 44
-61 c23 -34 43 -64 43 -67z m2185 -112 c160 -111 313 -219 342 -238 29 -20 52
-40 53 -45 0 -7 -56 -90 -80 -119 -4 -5 -115 67 -246 159 -131 92 -296 208
-366 257 -71 48 -128 93 -128 98 0 6 19 37 42 69 l41 59 26 -18 c14 -10 157
-110 316 -222z m-265 -87 c585 -411 614 -432 627 -454 25 -46 27 -36 -122
-563 -30 -104 -81 -288 -114 -407 -163 -585 -288 -1029 -362 -1288 -50 -177
-62 -208 -86 -227 l-28 -23 -960 0 -960 0 -28 23 c-32 25 -25 3 -167 513 -51
181 -110 392 -131 469 -22 77 -61 219 -88 315 -27 96 -76 272 -109 390 -175
625 -202 724 -202 751 0 19 11 41 33 63 17 19 160 124 317 234 157 109 359
251 450 315 l165 116 720 0 720 1 325 -228z m-2665 -1004 l18 -71 -29 -21
c-97 -70 -180 -146 -198 -181 -33 -65 -33 -145 2 -261 133 -440 228 -735 248
-770 49 -86 132 -124 273 -124 l87 0 17 -64 c9 -35 17 -70 17 -77 0 -17 -229
-5 -299 16 -129 40 -229 146 -269 287 -5 18 -49 159 -97 313 -172 552 -172
554 -136 673 31 104 72 155 207 259 65 51 124 92 130 93 7 0 20 -32 29 -72z
m3395 -19 c66 -49 133 -109 150 -132 82 -112 97 -250 43 -422 -17 -55 -70
-226 -118 -380 -48 -154 -95 -306 -106 -338 -51 -153 -168 -250 -329 -276 -87
-14 -230 -14 -230 0 0 6 8 40 17 75 l17 64 91 0 c109 0 152 11 207 53 67 51
72 64 203 492 18 61 56 184 84 274 90 290 74 338 -173 517 l-29 21 18 71 c9
40 21 72 27 72 5 0 63 -41 128 -91z m-3310 -281 c41 -148 78 -280 213 -763 36
-126 68 -245 72 -262 l7 -33 -89 0 c-81 0 -93 3 -134 29 -26 16 -52 43 -62 63
-16 34 -79 232 -208 657 -32 107 -59 209 -59 225 1 61 34 110 116 174 44 34
84 61 90 61 6 1 30 -68 54 -151z m3210 92 c82 -63 120 -118 120 -176 0 -45
-236 -818 -271 -885 -11 -23 -36 -48 -62 -64 -38 -22 -56 -25 -130 -25 -57 0
-87 4 -87 11 0 6 32 124 71 263 39 138 97 346 129 461 32 116 75 270 96 343
20 72 41 132 46 132 5 0 44 -27 88 -60z"/>
<path d="M1627 3563 c-4 -3 -7 -21 -7 -39 0 -52 -39 -144 -81 -189 -45 -49
-118 -91 -174 -100 -82 -13 -85 -14 -85 -40 0 -26 6 -29 81 -38 49 -7 120 -42
158 -79 17 -17 31 -33 31 -37 0 -4 -63 -51 -140 -104 -98 -69 -140 -104 -140
-117 0 -11 14 -66 30 -123 17 -58 30 -110 30 -118 -1 -8 -25 -31 -55 -52 -150
-104 -249 -299 -249 -492 0 -110 15 -175 65 -284 31 -67 54 -98 116 -160 43
-43 103 -91 133 -108 60 -34 170 -67 264 -80 l59 -8 42 -152 c23 -83 46 -156
49 -162 5 -8 135 -11 433 -11 l426 0 38 -35 c107 -96 289 -140 442 -105 231
52 401 263 401 500 -1 184 -87 342 -243 445 -22 15 -41 30 -41 33 0 4 18 69
39 147 22 77 45 159 51 183 6 23 15 42 20 42 19 0 63 -82 74 -138 10 -50 15
-57 36 -57 21 0 25 7 35 58 21 106 95 176 205 195 39 7 45 11 45 32 0 21 -7
26 -50 36 -109 24 -177 88 -197 187 -9 42 -18 61 -30 65 -22 5 -22 3 2 82 11
36 20 73 20 82 0 10 -46 48 -120 99 l-120 83 0 81 c0 134 -37 232 -123 322
-183 194 -483 190 -662 -9 -41 -46 -95 -141 -95 -169 0 -19 -369 -5 -437 17
-78 25 -142 79 -180 153 -18 34 -33 76 -33 91 0 44 -17 80 -38 80 -10 0 -22
-3 -25 -7z m1236 -88 c32 -8 75 -24 96 -34 57 -30 128 -107 164 -180 30 -61
32 -73 32 -166 -1 -88 -4 -107 -28 -157 -41 -85 -107 -152 -185 -190 -62 -30
-75 -33 -167 -33 -91 0 -106 3 -165 31 -196 93 -280 321 -190 513 83 175 263
263 443 216z m-1189 -124 c20 -37 100 -117 138 -137 l30 -15 -53 -37 c-47 -33
-94 -84 -124 -137 -9 -15 -15 -10 -43 34 -30 45 -82 93 -138 127 -17 10 -16
12 11 27 37 19 99 80 133 130 13 20 26 37 28 37 2 0 10 -13 18 -29z m561 -210
c-11 -11 -148 -125 -305 -255 -277 -230 -285 -236 -330 -237 -41 0 -151 -25
-191 -43 -12 -5 -21 12 -44 94 -24 87 -26 103 -14 115 37 35 234 164 240 158
7 -7 21 -58 34 -125 4 -19 12 -28 25 -28 24 0 40 28 40 72 1 67 59 164 128
212 70 48 104 55 277 56 157 0 159 0 140 -19z m89 -97 l7 -70 -198 -165 c-108
-90 -207 -172 -219 -182 -21 -16 -26 -16 -93 0 -38 9 -67 21 -64 25 7 13 555
469 558 466 1 -2 5 -35 9 -74z m1055 -229 c11 -11 8 -31 -18 -126 -77 -277
-68 -262 -166 -283 -43 -10 -50 -15 -50 -36 0 -21 6 -25 55 -35 30 -6 54 -15
53 -20 -2 -18 -86 -320 -90 -324 -1 -2 -5 -2 -7 0 -2 2 -27 169 -56 371 l-53
368 50 53 c28 30 63 77 77 106 l27 52 82 -57 c45 -31 88 -62 96 -69z m-963 5
c72 -99 191 -163 329 -177 l61 -5 48 -338 c26 -186 46 -343 42 -348 -3 -5 -23
-13 -43 -17 -122 -22 -272 -143 -333 -267 -18 -38 -35 -68 -37 -68 -2 0 -46
18 -98 40 -52 22 -96 40 -99 40 -2 0 -25 9 -50 20 l-47 20 21 41 c80 157 78
380 -7 549 -37 74 -143 194 -218 247 l-30 21 25 20 c14 11 104 86 200 166 148
123 177 143 185 130 6 -9 29 -42 51 -74z m574 -138 c0 -4 22 -165 50 -357 27
-193 50 -358 50 -367 0 -14 -8 -16 -57 -11 -32 3 -60 7 -62 9 -7 7 -101 679
-96 692 2 6 12 12 22 12 10 1 29 7 43 15 28 16 50 19 50 7z m-1215 -107 c103
-27 184 -74 261 -150 114 -112 168 -240 168 -400 0 -245 -170 -468 -413 -539
-83 -24 -230 -21 -312 7 -246 84 -402 312 -386 567 2 49 14 113 27 150 28 82
97 187 158 240 56 49 171 108 244 126 74 17 183 17 253 -1z m1684 -121 c19
-28 47 -53 89 -79 1 -1 -26 -30 -60 -64 -55 -54 -63 -60 -72 -44 -12 22 -53
64 -85 86 -14 9 -23 18 -20 20 57 41 81 63 96 87 9 17 20 30 23 30 3 0 16 -16
29 -36z m-373 -578 c170 -45 300 -180 335 -346 16 -75 6 -193 -21 -263 -41
-108 -150 -216 -260 -258 -250 -94 -526 53 -595 316 -84 324 222 636 541 551z
m-769 -278 l153 -62 0 -69 c0 -38 -4 -67 -9 -65 -4 2 -94 39 -199 82 l-191 80
41 48 c22 26 43 48 46 48 3 0 75 -28 159 -62z m-85 -169 c123 -51 228 -96 234
-101 6 -4 17 -29 24 -53 7 -25 26 -66 41 -91 16 -24 29 -47 29 -49 0 -3 -170
-4 -377 -3 l-377 3 -38 130 c-21 72 -38 133 -38 137 0 4 12 10 28 13 65 14
160 50 202 76 25 16 46 29 47 29 2 0 103 -41 225 -91z"/>
<path d="M2653 3346 c-59 -28 -126 -105 -143 -164 -29 -106 1 -214 82 -288
148 -136 387 -65 444 133 29 100 -2 200 -86 276 -26 24 -66 49 -88 55 -66 20
-150 15 -209 -12z m195 -52 c157 -65 179 -276 38 -371 -41 -28 -57 -33 -108
-33 -35 0 -74 7 -94 16 -50 24 -100 88 -114 144 -39 164 125 308 278 244z"/>
<path d="M1524 2382 c-87 -31 -174 -111 -215 -199 -20 -40 -23 -65 -24 -153 0
-93 3 -111 27 -162 33 -71 106 -143 178 -177 48 -23 68 -26 160 -26 90 0 112
4 153 24 75 37 142 104 179 179 30 61 33 74 33 162 -1 84 -4 102 -30 155 -35
73 -104 144 -176 181 -71 37 -206 44 -285 16z m236 -66 c99 -41 164 -122 187
-230 40 -195 -117 -375 -317 -364 -255 14 -383 319 -214 507 48 54 81 75 149
98 48 15 145 10 195 -11z"/>
<path d="M2909 1737 c-176 -50 -273 -214 -225 -381 30 -104 82 -163 180 -207
145 -64 317 0 394 146 23 43 27 62 27 140 0 101 -16 143 -81 215 -68 75 -198
114 -295 87z m182 -84 c176 -90 181 -336 9 -433 -37 -20 -59 -25 -120 -25 -63
0 -82 4 -120 27 -78 45 -122 122 -123 212 -1 185 189 302 354 219z"/>
</g>
</svg>
